:version 1.10
:name ASF
:units
  mass 1
  length 1
  angle deg
:documentation
  ASF file generated by Kaydara
:root
  axis xyz
  order  tx ty tz rx ry rz
  position 0 0 0
  orientation 0 0 0
:bonedata
  begin
    id 1
    name abdomenDummy
    direction 1 -1.27917e-005 -1.26829e-007
    length 1.79048
    axis 0 0 0 xyz
  end
  begin
    id 2
    name abdomen
    direction 0.987238 0.159249 -9.68575e-008
    length 8.61378
    axis 2.73208e-005 5.54953e-006 9.16328 xyz
    dof rx ry rz
  end
  begin
    id 3
    name chest
    direction 0 0 0
    length 0
    axis 2.65071e-005 8.63688e-006 2.59796 xyz
    dof rx ry rz
  end
  begin
    id 4
    name neckDummyDummy
    direction 0.998972 0.0453274 -1.50742e-007
    length 9.56202
    axis 2.65071e-005 8.63688e-006 2.59796 xyz
  end
  begin
    id 5
    name neckDummy
    direction 0.99977 0.0214525 -1.61748e-007
    length 1.93574
    axis 2.62932e-005 9.26758e-006 1.22924 xyz
    dof rx ry rz
  end
  begin
    id 6
    name neck
    direction 0.99928 -0.0379406 -1.88707e-007
    length 3.70367
    axis 2.56966e-005 1.08122e-005 -2.17436 xyz
    dof rx ry rz
  end
  begin
    id 7
    name head
    direction 0.992648 -0.121037 -2.25408e-007
    length 6.35158
    axis 2.47068e-005 1.29149e-005 -6.95196 xyz
    dof rx ry rz
  end
  begin
    id 8
    name figureHair
    direction -0.86681 -0.498639 -7.83376e-008
    length 8.29884
    axis -2.7515e-005 4.48842e-006 -150.09 xyz
    dof rx ry rz
  end
  begin
    id 9
    name lCollarDummy
    direction 0.994611 0.0451299 -0.0933417
    length 9.60395
    axis 2.65071e-005 8.63688e-006 2.59796 xyz
  end
  begin
    id 10
    name lCollar
    direction 0.0384146 0.00127577 -0.999261
    length 6.95318
    axis 90.4899 87.7973 1.90202 xyz
    dof rx ry rz
  end
  begin
    id 11
    name lShldr
    direction -0.030648 0.0920515 -0.995282
    length 9.61158
    axis -161.793 84.4324 108.415 xyz
    dof rx ry rz
  end
  begin
    id 12
    name lForeArm
    direction 0.000163956 -0.0977586 -0.99521
    length 8.6068
    axis 0.134773 84.3899 -89.8525 xyz
    dof rx ry rz
  end
  begin
    id 13
    name lHand
    direction -0.0190533 -0.1444 -0.989336
    length 7.61479
    axis -7.3729 81.6249 -97.517 xyz
    dof rx ry rz
  end
  begin
    id 14
    name rCollarDummy
    direction 0.994871 0.0442627 0.0909555
    length 9.60761
    axis 2.65071e-005 8.63688e-006 2.59796 xyz
  end
  begin
    id 15
    name rCollar
    direction 0.0334251 -4.74072e-007 0.999441
    length 6.97058
    axis -178.152 -88.0845 -0.000674207 xyz
    dof rx ry rz
  end
  begin
    id 16
    name rShldr
    direction -0.026922 0.0719509 0.997045
    length 9.60913
    axis 71.2822 -85.594 110.514 xyz
    dof rx ry rz
  end
  begin
    id 17
    name rForeArm
    direction 0.00134679 -0.118986 0.992895
    length 8.57176
    axis -88.7923 -83.1659 -89.3516 xyz
    dof rx ry rz
  end
  begin
    id 18
    name rHand
    direction -0.0185183 -0.0768601 0.99687
    length 7.69687
    axis -74.5596 -85.4655 -103.546 xyz
    dof rx ry rz
  end
  begin
    id 19
    name lThighDummy
    direction -0.236086 -0.0385456 -0.970967
    length 4.99155
    axis 0 0 0 xyz
  end
  begin
    id 20
    name lThigh
    direction -0.993968 0.0148998 -0.108653
    length 13.572
    axis -91.4001 6.23768 179.141 xyz
    dof rx ry rz
  end
  begin
    id 21
    name lShin
    direction -0.992341 0.0904576 -0.0841193
    length 18.5862
    axis -91.4558 4.82538 174.792 xyz
    dof rx ry rz
  end
  begin
    id 22
    name lFoot
    direction 0.0209381 -0.999771 -0.00453005
    length 8.44474
    axis 4.86759 0.259522 -88.8001 xyz
    dof rx ry rz
  end
  begin
    id 23
    name rThighDummy
    direction -0.236086 -0.0385456 0.970967
    length 4.99155
    axis 0 0 0 xyz
  end
  begin
    id 24
    name rThigh
    direction -0.993968 0.0148995 0.108653
    length 13.5721
    axis -89.7059 -6.2377 179.141 xyz
    dof rx ry rz
  end
  begin
    id 25
    name rShin
    direction -0.9925 0.0899962 0.0827255
    length 18.6716
    axis -89.2745 -4.74775 174.819 xyz
    dof rx ry rz
  end
  begin
    id 26
    name rFoot
    direction 0.0301721 -0.999545 9.70865e-005
    length 8.45013
    axis -2.50066e-005 -0.00555246 -88.271 xyz
    dof rx ry rz
  end
:hierarchy
  begin
    root abdomenDummy lThighDummy rThighDummy
    abdomenDummy abdomen
    abdomen chest
    chest neckDummyDummy lCollarDummy rCollarDummy
    neckDummyDummy neckDummy
    neckDummy neck
    neck head
    head figureHair
    lCollarDummy lCollar
    lCollar lShldr
    lShldr lForeArm
    lForeArm lHand
    rCollarDummy rCollar
    rCollar rShldr
    rShldr rForeArm
    rForeArm rHand
    lThighDummy lThigh
    lThigh lShin
    lShin lFoot
    rThighDummy rThigh
    rThigh rShin
    rShin rFoot
  end

:SAMPLES-PER-SECOND 25
:FULLY-SPECIFIED
:DEGREES
758
root  1.89749 37.0021 -2.17725 176.146 -0.122208 91.8708
abdomen  0.0974936 -5.75032 -0.799325
chest  1.33505 4.04699 -5.14434
neckDummy  9.09964e-021 0 8.72668e-016
neck  7.09809 12.4737 45.7221
head  -4.245 -10.1282 16.0419
figureHair  0 1.51661e-021 -9.5315e-016
lCollar  -5.15695e-016 -6.42944e-016 -7.59357e-014
lShldr  27.1662 1.70481 -71.4683
lForeArm  18.9921 -23.5629 -0.478005
lHand  0.254698 0.195082 5.2986
rCollar  1.7976e-016 -5.12864e-014 1.62755e-015
rShldr  -22.0505 74.0103 5.21449
rForeArm  2.73524 1.76181 16.4435
rHand  0.508269 -12.3792 0.198026
lThigh  -7.10575 1.23665 0.282358
lShin  -12.6713 -0.50859 -4.89306
lFoot  4.60629 -0.447911 -1.61323
rThigh  9.07409 -3.16231 -0.349468
rShin  4.65602 4.73132 3.44885
rFoot  -4.46098 0.352958 -1.53775
759
root  1.91664 37.0055 -2.18934 176.198 -0.141983 91.7492
abdomen  0.018982 -5.77855 -0.433055
chest  1.25613 4.06763 -5.86815
neckDummy  9.09964e-021 0 8.72668e-016
neck  7.1543 12.809 43.2691
head  -4.10446 -10.0885 16.0905
figureHair  0 1.51661e-021 -9.5315e-016
lCollar  -5.15695e-016 -6.42944e-016 -7.59357e-014
lShldr  27.4665 1.43662 -71.4467
lForeArm  18.4279 -23.1811 -0.494583
lHand  0.254698 0.195082 5.2986
rCollar  1.7976e-016 -5.12864e-014 1.62755e-015
rShldr  -20.3179 73.9512 6.99152
rForeArm  2.51108 1.82602 16.308
rHand  0.478021 -12.3928 0.440207
lThigh  -7.14458 1.29607 0.324101
lShin  -12.5738 -0.473019 -4.89154
lFoot  4.66001 -0.451042 -1.66416
rThigh  9.07444 -3.05946 -0.319432
rShin  4.67404 4.72207 3.46721
rFoot  -4.53469 0.352853 -1.60302
760
root  1.94774 37.007 -2.19936 176.298 -0.145859 91.5399
abdomen  -0.142088 -5.53711 0.224371
chest  1.00207 3.66472 -7.19221
neckDummy  9.09964e-021 0 8.72668e-016
neck  7.49972 13.4842 39.1173
head  -3.73616 -10.24 16.2635
figureHair  0 1.51661e-021 -9.5315e-016
lCollar  -5.15695e-016 -6.42944e-016 -7.59357e-014
lShldr  27.6724 0.767153 -71.5891
lForeArm  17.792 -22.716 -0.514654
lHand  0.254698 0.195082 5.2986
rCollar  1.7976e-016 -5.12864e-014 1.62755e-015
rShldr  -16.8081 73.7836 10.8405
rForeArm  2.73365 1.83778 16.2929
rHand  0.520687 -12.2489 0.0551036
lThigh  -7.15657 1.39632 0.331176
lShin  -12.4446 -0.402735 -4.86138
lFoot  4.64909 -0.447986 -1.71249
rThigh  9.10149 -2.90179 -0.31841
rShin  4.74171 4.76766 3.4826
rFoot  -4.61492 0.357573 -1.6346
761
root  1.99451 37.0081 -2.20743 176.394 -0.15387 91.2645
abdomen  -0.31777 -5.24508 0.986915
chest  0.721791 3.18937 -8.80381
neckDummy  9.09964e-021 0 8.72668e-016
neck  7.71717 13.9821 33.409
head  -3.02541 -10.146 16.0206
figureHair  0 1.51661e-021 -9.5315e-016
lCollar  -5.15695e-016 -6.42944e-016 -7.59357e-014
lShldr  27.39 0.0569476 -71.761
lForeArm  17.8006 -22.6524 -0.517383
lHand  0.254698 0.195082 5.2986
rCollar  1.7976e-016 -5.12864e-014 1.62755e-015
rShldr  -12.8914 73.5246 15.285
rForeArm  3.08149 1.68691 16.6346
rHand  0.562601 -12.0904 -0.335823
lThigh  -7.17173 1.53857 0.33648
lShin  -12.3172 -0.333935 -4.82401
lFoot  4.63622 -0.444343 -1.77114
rThigh  9.12934 -2.71516 -0.317805
rShin  4.79957 4.83367 3.49016
rFoot  -4.66079 0.359877 -1.65566
762
root  2.06376 37.0109 -2.21544 176.438 -0.141464 90.993
abdomen  -0.43847 -5.12662 1.67565
chest  0.56523 3.02662 -10.2161
neckDummy  9.09964e-021 0 8.72668e-016
neck  7.50379 14.083 26.0815
head  -2.10485 -9.61015 15.3995
figureHair  0 1.51661e-021 -9.5315e-016
lCollar  -5.15695e-016 -6.42944e-016 -7.59357e-014
lShldr  26.6232 -0.430534 -71.8696
lForeArm  18.3554 -22.9888 -0.50292
lHand  0.254698 0.195082 5.2986
rCollar  1.7976e-016 -5.12864e-014 1.62755e-015
rShldr  -9.88812 73.3748 18.6517
rForeArm  3.26984 1.41034 17.3432
rHand  0.550091 -12.0797 -0.239766
lThigh  -7.19708 1.64774 0.341241
lShin  -12.2348 -0.257873 -4.8208
lFoot  4.67362 -0.444398 -1.8566
rThigh  9.14676 -2.62086 -0.323076
rShin  4.80943 4.96257 3.46571
rFoot  -4.67904 0.358133 -1.68523
763
root  2.15349 37.0127 -2.21972 176.427 -0.0875549 90.7264
abdomen  -0.546925 -5.1498 2.2202
chest  0.473954 3.14335 -11.2987
neckDummy  9.09964e-021 0 8.72668e-016
neck  7.11547 13.9977 18.0821
head  -1.08292 -9.00574 13.7752
figureHair  0 1.51661e-021 -9.5315e-016
lCollar  -5.15695e-016 -6.42944e-016 -7.59357e-014
lShldr  25.6722 -0.751356 -71.9181
lForeArm  18.8054 -23.3768 -0.486129
lHand  0.254698 0.195082 5.2986
rCollar  1.7976e-016 -5.12864e-014 1.62755e-015
rShldr  -7.49866 73.3873 21.1632
rForeArm  3.49559 1.18055 18.2426
rHand  0.547039 -12.2326 -0.15961
lThigh  -7.16614 1.72791 0.296728
lShin  -12.2555 -0.20101 -4.82682
lFoot  4.70611 -0.443253 -1.95753
rThigh  9.20542 -2.62509 -0.382944
rShin  4.74234 5.1617 3.43797
rFoot  -4.72307 0.359353 -1.7131
764
root  2.25748 37.0143 -2.21882 176.441 -0.0811157 90.4558
abdomen  -0.656814 -5.30318 2.52916
chest  0.395081 3.32823 -12.1082
neckDummy  9.09964e-021 0 8.72668e-016
neck  6.69771 13.8644 10.7086
head  -0.0462629 -8.35046 10.1758
figureHair  0 1.51661e-021 -9.5315e-016
lCollar  -5.15695e-016 -6.42944e-016 -7.59357e-014
lShldr  24.942 -1.00057 -71.9645
lForeArm  19.0337 -23.7721 -0.468905
lHand  0.254698 0.195082 5.2986
rCollar  1.7976e-016 -5.12864e-014 1.62755e-015
rShldr  -5.50318 73.3707 23.016
rForeArm  3.54437 1.09504 19.2628
rHand  0.577841 -12.3446 -0.363866
lThigh  -7.09769 1.82761 0.248663
lShin  -12.2841 -0.211867 -4.7891
lFoot  4.70476 -0.438523 -2.06829
rThigh  9.26692 -2.56255 -0.432721
rShin  4.67481 5.23607 3.45323
rFoot  -4.79378 0.356079 -1.79926
765
root  2.38338 37.0194 -2.21934 176.572 -0.0999603 90.2466
abdomen  -0.718952 -5.51931 2.59092
chest  0.354349 3.43658 -12.6166
neckDummy  9.09964e-021 0 8.72668e-016
neck  6.10473 13.683 4.00416
head  0.805474 -7.48066 4.98715
figureHair  0 1.51661e-021 -9.5315e-016
lCollar  -5.15695e-016 -6.42944e-016 -7.59357e-014
lShldr  24.5859 -1.19051 -72.0709
lForeArm  19.3424 -24.1194 -0.453669
lHand  0.254698 0.195082 5.2986
rCollar  1.7976e-016 -5.12864e-014 1.62755e-015
rShldr  -4.31917 73.2722 23.8483
rForeArm  3.2118 1.09138 20.1907
rHand  0.579502 -12.3386 -0.379067
lThigh  -7.09302 1.82826 0.271712
lShin  -12.1297 -0.251778 -4.75388
lFoot  4.72392 -0.433633 -2.2293
rThigh  9.26663 -2.48 -0.417381
rShin  4.76541 5.14696 3.49796
rFoot  -4.82925 0.338243 -1.96989
766
root  2.5395 37.026 -2.21881 176.785 -0.0797272 90.1976
abdomen  -0.749631 -5.57575 2.5677
chest  0.317085 3.42418 -12.9389
neckDummy  9.09964e-021 0 8.72668e-016
neck  5.43144 13.6314 -2.38315
head  1.42164 -6.82492 -1.06641
figureHair  0 1.51661e-021 -9.5315e-016
lCollar  -5.15695e-016 -6.42944e-016 -7.59357e-014
lShldr  24.3758 -1.4062 -72.2124
lForeArm  19.5912 -24.1254 -0.453422
lHand  0.254698 0.195082 5.2986
rCollar  1.7976e-016 -5.12864e-014 1.62755e-015
rShldr  -3.37377 73.1636 24.7204
rForeArm  3.04496 1.08724 20.5508
rHand  0.559962 -12.3628 -0.215885
lThigh  -7.10763 1.58038 0.289593
lShin  -11.9059 -0.265056 -4.78103
lFoot  4.77915 -0.429164 -2.45378
rThigh  9.28067 -2.65058 -0.446243
rShin  4.95998 5.13961 3.53871
rFoot  -4.82494 0.316483 -2.13836
767
root  2.71695 37.0324 -2.21528 176.915 0.00871277 90.3122
abdomen  -0.792204 -5.47444 2.54982
chest  0.244841 3.37252 -13.3546
neckDummy  9.09964e-021 0 8.72668e-016
neck  4.91381 13.8419 -8.12669
head  2.00631 -6.6699 -8.07343
figureHair  0 1.51661e-021 -9.5315e-016
lCollar  -5.15695e-016 -6.42944e-016 -7.59357e-014
lShldr  24.2005 -1.74151 -72.2946
lForeArm  19.458 -23.9035 -0.463165
lHand  0.254698 0.195082 5.2986
rCollar  1.7976e-016 -5.12864e-014 1.62755e-015
rShldr  -1.51185 73.0132 26.8811
rForeArm  3.17615 1.08987 20.2542
rHand  0.571982 -12.4186 -0.290663
lThigh  -7.03751 1.1331 0.228268
lShin  -11.8786 -0.287199 -4.81747
lFoot  4.84604 -0.423793 -2.72067
rThigh  9.34037 -3.08225 -0.549757
rShin  5.08236 5.20498 3.57668
rFoot  -4.81457 0.293247 -2.31459
768
root  2.90468 37.0426 -2.20742 177.018 0.0667572 90.5155
abdomen  -0.847738 -5.44397 2.44892
chest  0.162987 3.42638 -13.9319
neckDummy  9.09964e-021 0 8.72668e-016
neck  4.57072 14.0018 -13.3259
head  2.69156 -6.57012 -15.0656
figureHair  0 1.51661e-021 -9.5315e-016
lCollar  -5.15695e-016 -6.42944e-016 -7.59357e-014
lShldr  24.0734 -2.11199 -72.2958
lForeArm  19.2575 -23.8893 -0.463752
lHand  0.254698 0.195082 5.2986
rCollar  1.7976e-016 -5.12864e-014 1.62755e-015
rShldr  0.870147 72.7992 29.4383
rForeArm  3.10981 1.09403 19.8122
rHand  0.576723 -12.3609 -0.348692
lThigh  -6.94204 0.60363 0.166787
lShin  -11.9414 -0.368195 -4.82104
lFoot  4.94082 -0.418113 -3.04615
rThigh  9.33627 -3.54284 -0.604169
rShin  5.20274 5.0971 3.61794
rFoot  -4.7932 0.255128 -2.60061
